<svg width="18" height="19" viewBox="0 0 18 19" xmlns="http://www.w3.org/2000/svg">
<path d="M2.33333 5C3.50633 5 4.47733 4.06643 4.64 2.85714H17.6667C17.851 2.85714 18 2.6975 18 2.5C18 2.3025 17.851 2.14286 17.6667 2.14286H4.64C4.47733 0.933571 3.50633 0 2.33333 0C1.04667 0 0 1.12179 0 2.5C0 3.87821 1.04667 5 2.33333 5ZM2.33333 0.714286C3.25233 0.714286 4 1.51536 4 2.5C4 3.48464 3.25233 4.28571 2.33333 4.28571C1.41433 4.28571 0.666667 3.48464 0.666667 2.5C0.666667 1.51536 1.41433 0.714286 2.33333 0.714286Z"/>
<path d="M15.6667 14C14.4937 14 13.5227 14.9336 13.36 16.1429H0.333333C0.149333 16.1429 0 16.3025 0 16.5C0 16.6975 0.149333 16.8571 0.333333 16.8571H13.36C13.5227 18.0664 14.4937 19 15.6667 19C16.953 19 18 17.8782 18 16.5C18 15.1218 16.953 14 15.6667 14ZM15.6667 18.2857C14.7477 18.2857 14 17.4846 14 16.5C14 15.5154 14.7477 14.7143 15.6667 14.7143C16.5857 14.7143 17.3333 15.5154 17.3333 16.5C17.3333 17.4846 16.5857 18.2857 15.6667 18.2857Z"/>
<path d="M17.6667 9.22492H11.456C11.324 7.97544 10.3043 7 9.069 7C7.83367 7 6.814 7.97579 6.682 9.22492H0.333333C0.149333 9.22492 0 9.37998 0 9.57181C0 9.76363 0.149333 9.91869 0.333333 9.91869H6.703C6.89533 11.0981 7.88167 12 9.069 12C10.2563 12 11.2423 11.0981 11.4347 9.91869H17.6667C17.851 9.91869 18 9.76363 18 9.57181C18 9.37998 17.851 9.22492 17.6667 9.22492ZM9.069 11.3062C8.112 11.3062 7.33333 10.4959 7.33333 9.5C7.33333 8.50409 8.112 7.69377 9.069 7.69377C10.026 7.69377 10.8047 8.50409 10.8047 9.5C10.8047 10.4959 10.026 11.3062 9.069 11.3062Z"/>
</svg>
