<?xml version="1.0" encoding="iso-8859-1"?>
<!-- Generator: Adobe Illustrator 19.0.0, SVG Export Plug-In . SVG Version: 6.00 Build 0)  -->
<svg version="1.1" id="Capa_1" xmlns="http://www.w3.org/2000/svg" xmlns:xlink="http://www.w3.org/1999/xlink" x="0px" y="0px"
	 viewBox="0 0 512 512" style="enable-background:new 0 0 512 512;" xml:space="preserve">
<g>
	<g>
		<path d="M481,0H31c-8.284,0-15,6.716-15,15v60c0,3.95,1.558,7.74,4.335,10.548L196,263.165V497c0,5.532,3.045,10.615,7.922,13.225
			c4.875,2.609,10.793,2.325,15.398-0.744l90-60c4.173-2.782,6.68-7.466,6.68-12.481V263.165L491.665,85.548
			C494.442,82.74,496,78.95,496,75V15C496,6.716,489.284,0,481,0z M286,428.972l-60,40V272h60V428.972z M294.738,242h-77.476
			L66.932,90h378.136L294.738,242z M466,60H46V30h420V60z"/>
	</g>
</g>
<g>
</g>
<g>
</g>
<g>
</g>
<g>
</g>
<g>
</g>
<g>
</g>
<g>
</g>
<g>
</g>
<g>
</g>
<g>
</g>
<g>
</g>
<g>
</g>
<g>
</g>
<g>
</g>
<g>
</g>
</svg>
